<svg width="32" height="32" viewBox="0 0 32 32" fill="none" xmlns="http://www.w3.org/2000/svg">
<path d="M30.5 14C30.3125 13.6875 28.4619 12.8881 28.4619 12.8881C28.7838 12.7219 29.0037 12.6875 29.0037 12C29.0037 11.25 29 11 28.5 11H26.8037C26.7969 10.985 26.7894 10.9694 26.7825 10.9537C25.6875 8.5625 25.5406 7.95812 23.9075 7.14437C21.7169 6.055 17.61 6 16 6C14.39 6 10.2831 6.055 8.09437 7.14437C6.45937 7.95687 6.5 8.375 5.21938 10.9537C5.21938 10.9606 5.20625 10.9788 5.19438 11H3.49625C3 11 2.99625 11.25 2.99625 12C2.99625 12.6875 3.21625 12.7219 3.53813 12.8881C3.53813 12.8881 1.75 13.75 1.5 14C1.25 14.25 1 16 1 19C1 22 1.25 25 1.25 25H1.99625C1.99625 25.875 2.125 26 2.5 26H7.5C7.875 26 8 25.875 8 25H24C24 25.875 24.125 26 24.5 26H29.625C29.875 26 30 25.8125 30 25H30.75C30.75 25 31 21.9375 31 19C31 16.0625 30.6875 14.3125 30.5 14ZM7.82875 16.8088C6.69045 16.9332 5.54633 16.997 4.40125 17C3.125 17 3.08125 17.0819 2.99125 16.285C2.95739 15.9203 2.9681 15.5528 3.02312 15.1906L3.0625 15H3.25C4 15 4.70438 15.0319 6.03438 15.4237C6.71083 15.6267 7.34708 15.9452 7.915 16.365C8.1875 16.5625 8.25 16.75 8.25 16.75L7.82875 16.8088ZM23.2763 21.3088L23 22H9C9 22 9.02437 21.9619 8.6875 21.3013C8.4375 20.8125 8.75 20.5 9.24438 20.3225C10.2019 19.9775 13 19 16 19C19 19 21.8538 19.8425 22.7812 20.3225C23.125 20.5 23.5519 20.625 23.2763 21.3125V21.3088ZM7.21375 12.7756C7.01187 12.7873 6.80953 12.7887 6.6075 12.78C6.77063 12.49 6.86125 12.1669 7.02063 11.8294C7.52063 10.7669 8.0925 9.56437 9.11063 9.0575C10.5819 8.325 13.6313 7.995 16 7.995C18.3687 7.995 21.4181 8.3225 22.8894 9.0575C23.9075 9.56437 24.4769 10.7675 24.9794 11.8294C25.14 12.17 25.2294 12.4956 25.3969 12.7875C25.2719 12.7944 25.1281 12.7875 24.785 12.7756H7.21375ZM28.9463 16.2825C28.8125 17.0625 28.9375 17 27.5987 17C26.4537 16.997 25.3096 16.9332 24.1712 16.8088C23.9931 16.7769 23.9425 16.4762 24.085 16.365C24.65 15.9405 25.2872 15.6216 25.9656 15.4237C27.2956 15.0319 28.0444 14.9794 28.7838 15.0056C28.8334 15.0075 28.8806 15.0277 28.9163 15.0623C28.9519 15.097 28.9735 15.1435 28.9769 15.1931C29.0122 15.5569 29.0019 15.9237 28.9463 16.285V16.2825Z" fill="white"/>
</svg>
