<svg width="24" height="24" viewBox="0 0 24 24" fill="none" xmlns="http://www.w3.org/2000/svg">
<path d="M17.8819 19.2969C16.1231 20.4125 14.0826 21.0033 11.9999 20.9999C6.60791 20.9999 2.12191 17.1199 1.18091 11.9999C1.61094 9.67066 2.78254 7.54284 4.52091 5.93394L1.39191 2.80794L2.80691 1.39294L22.6059 21.1929L21.1909 22.6069L17.8809 19.2969H17.8819ZM5.93491 7.34994C4.57591 8.58553 3.62923 10.2087 3.22291 11.9999C3.5352 13.3664 4.16217 14.6411 5.05391 15.7225C5.94565 16.804 7.07753 17.6623 8.35946 18.2293C9.64139 18.7962 11.038 19.056 12.438 18.9881C13.838 18.9201 15.2029 18.5263 16.4239 17.8379L14.3959 15.8099C13.5326 16.3538 12.5101 16.588 11.4961 16.4744C10.4822 16.3607 9.53695 15.9058 8.81548 15.1844C8.09401 14.4629 7.63914 13.5177 7.52547 12.5037C7.4118 11.4897 7.64609 10.4673 8.18991 9.60394L5.93491 7.34994ZM12.9139 14.3279L9.67191 11.0859C9.49397 11.5389 9.4521 12.0339 9.55141 12.5103C9.65073 12.9867 9.88693 13.4237 10.231 13.7678C10.5751 14.1119 11.0122 14.3481 11.4886 14.4474C11.965 14.5468 12.46 14.5049 12.9129 14.3269L12.9139 14.3279ZM20.8069 16.5919L19.3759 15.1619C20.0444 14.2092 20.5203 13.1351 20.7769 11.9999C20.5051 10.8097 19.9942 9.68709 19.2751 8.70044C18.5559 7.71379 17.6437 6.88367 16.5938 6.26055C15.5439 5.63743 14.3782 5.23431 13.1676 5.07571C11.9571 4.9171 10.7269 5.00632 9.55191 5.33794L7.97391 3.75994C9.22091 3.26994 10.5799 2.99994 11.9999 2.99994C17.3919 2.99994 21.8779 6.87994 22.8189 11.9999C22.5125 13.6656 21.8238 15.2375 20.8069 16.5919ZM11.7229 7.50794C12.3594 7.46861 12.997 7.56501 13.5935 7.79076C14.1899 8.01651 14.7315 8.36646 15.1825 8.81739C15.6334 9.26833 15.9833 9.80997 16.2091 10.4064C16.4348 11.0028 16.5312 11.6404 16.4919 12.2769L11.7219 7.50794H11.7229Z" fill="#AEAEB3"/>
</svg>
