<svg width="62" height="42" viewBox="0 0 62 42" fill="none" xmlns="http://www.w3.org/2000/svg">
<path d="M14.1145 42C11.0045 42 8.41288 41.3887 6.33956 40.1662C4.30612 38.9042 2.7312 36.7352 1.6148 33.6592C0.538265 30.5831 0 26.3634 0 21C0 15.6366 0.538265 11.4169 1.6148 8.34084C2.7312 5.26479 4.30612 3.11549 6.33956 1.89296C8.41288 0.630986 11.0045 0 14.1145 0C17.2245 0 19.7962 0.630986 21.8296 1.89296C23.903 3.15493 25.4779 5.32394 26.5544 8.4C27.6708 11.4366 28.229 15.6366 28.229 21C28.229 26.3634 27.6708 30.5831 26.5544 33.6592C25.4779 36.6958 23.903 38.8451 21.8296 40.107C19.7962 41.369 17.2245 42 14.1145 42ZM14.1145 35.3746C15.6695 35.3746 16.8457 34.9606 17.6431 34.1324C18.4804 33.2648 19.0386 31.9634 19.3177 30.2282C19.6367 28.493 19.7962 26.107 19.7962 23.0704V18.9296C19.7962 15.893 19.6367 13.507 19.3177 11.7718C19.0386 10.0366 18.4804 8.75493 17.6431 7.92676C16.8457 7.05915 15.6695 6.62535 14.1145 6.62535C12.5595 6.62535 11.3634 7.05915 10.5261 7.92676C9.72864 8.75493 9.17044 10.0366 8.85147 11.7718C8.57237 13.507 8.43282 15.893 8.43282 18.9296V23.0704C8.43282 26.107 8.57237 28.493 8.85147 30.2282C9.17044 31.9634 9.72864 33.2648 10.5261 34.1324C11.3634 34.9606 12.5595 35.3746 14.1145 35.3746Z" fill="#EBEBF0"/>
<path d="M33.2925 39.1606C33.2925 36.9127 33.7909 34.9014 34.7877 33.1268C35.7845 31.3127 37.0006 29.7352 38.436 28.3944C39.9112 27.0535 41.825 25.5352 44.1774 23.8394C46.2109 22.3014 47.8057 21.0197 48.962 19.9944C50.1582 18.969 51.155 17.8451 51.9524 16.6225C52.9492 15.0845 53.4476 13.3493 53.4476 11.4169C53.4476 10.1549 52.9691 9.0507 52.0122 8.10422C51.0951 7.11831 49.7595 6.62535 48.0051 6.62535C44.0578 6.62535 42.0842 8.49859 42.0842 12.2451V14.6704H33.9504C33.7909 13.9606 33.7112 13.1718 33.7112 12.3042C33.7112 8.20282 35.0867 5.12676 37.8379 3.07606C40.6289 1.02535 44.1376 0 48.3639 0C52.072 0 54.9228 0.709858 56.9164 2.12957C58.91 3.54929 60.2058 5.14648 60.8039 6.92113C61.4418 8.69577 61.7608 10.3521 61.7608 11.8901C61.7608 14.6113 61.1428 17.0366 59.9067 19.1662C58.6707 21.2563 57.1955 23.031 55.481 24.4901C53.8064 25.9099 51.7132 27.4676 49.2013 29.1634C47.2874 30.4648 45.852 31.5296 44.8951 32.3577C44.2173 32.9493 43.7189 33.5211 43.4 34.0732H62V41.2901H33.2925V39.1606Z" fill="#EBEBF0"/>
</svg>
