<svg width="64" height="42" viewBox="0 0 64 42" fill="none" xmlns="http://www.w3.org/2000/svg">
<path d="M14.5947 42C11.3651 42 8.68734 41.369 6.5615 40.107C4.43565 38.8451 2.80039 36.6958 1.65571 33.6592C0.551902 30.5831 0 26.3634 0 21C0 15.6366 0.551902 11.4366 1.65571 8.4C2.80039 5.32394 4.43565 3.15493 6.5615 1.89296C8.68734 0.630986 11.3651 0 14.5947 0C17.7835 0 20.4408 0.630986 22.5667 1.89296C24.6925 3.15493 26.3278 5.32394 27.4724 8.4C28.6171 11.4761 29.1895 15.6761 29.1895 21C29.1895 26.3239 28.6171 30.5239 27.4724 33.6C26.3278 36.6761 24.6925 38.8451 22.5667 40.107C20.4408 41.369 17.7835 42 14.5947 42ZM14.5947 36.2028C16.4753 36.2028 17.9266 35.7099 18.9486 34.7239C19.9707 33.738 20.6657 32.2789 21.0336 30.3465C21.4015 28.3746 21.5855 25.7718 21.5855 22.538V19.6394C21.5855 16.3662 21.4015 13.7437 21.0336 11.7718C20.6657 9.8 19.9707 8.32113 18.9486 7.33521C17.9266 6.30986 16.4753 5.79718 14.5947 5.79718C12.7142 5.79718 11.2629 6.29014 10.2408 7.27605C9.2188 8.26197 8.52382 9.74084 8.15588 11.7127C7.78795 13.6451 7.60398 16.2282 7.60398 19.462V22.3606C7.60398 25.6338 7.78795 28.2563 8.15588 30.2282C8.52382 32.2 9.2188 33.6986 10.2408 34.7239C11.2629 35.7099 12.7142 36.2028 14.5947 36.2028Z" fill="#EBEBF0"/>
<path d="M37.0181 35.493H47.259V9.70141H36.9568V5.32394C38.8374 5.12676 41.1267 4.59436 43.8249 3.72676C46.564 2.85915 48.976 1.85352 51.061 0.709857H54.6177V35.493H64V41.2901H37.0181V35.493Z" fill="#EBEBF0"/>
</svg>
